<?xml version="1.0" encoding="UTF-8" standalone="no"?>
<!DOCTYPE svg PUBLIC "-//W3C//DTD SVG 1.1//EN"
 "http://www.w3.org/Graphics/SVG/1.1/DTD/svg11.dtd">
<!-- Generated by graphviz version 15.1.1 (20260805.0921)
 -->
<!-- Title: firmware/app/app.c Pages: 1 -->
<svg width="320pt" height="140pt"
 viewBox="0.00 0.00 320.00 140.00" xmlns="http://www.w3.org/2000/svg" xmlns:xlink="http://www.w3.org/1999/xlink">
<g id="graph0" class="graph" transform="scale(1 1) rotate(0) translate(4 136)">
<title>firmware/app/app.c</title>
<!-- Node1 -->
<g id="Node000001" class="node">
<title>Node1</title>
<g id="a_Node000001"><a xlink:title=" ">
<polygon fill="#999999" stroke="#666666" points="193.62,-132 94.38,-132 94.38,-112 193.62,-112 193.62,-132"/>
<text xml:space="preserve" text-anchor="middle" x="144" y="-118.5" font-family="Helvetica,sans-Serif" font-size="10.00">firmware/app/app.c</text>
</a>
</g>
</g>
<!-- Node2 -->
<g id="Node000002" class="node">
<title>Node2</title>
<g id="a_Node000002"><a xlink:href="app_8h.html" target="_top" xlink:title=" ">
<polygon fill="white" stroke="#666666" points="40,-76 0,-76 0,-56 40,-56 40,-76"/>
<text xml:space="preserve" text-anchor="middle" x="20" y="-62.5" font-family="Helvetica,sans-Serif" font-size="10.00">app.h</text>
</a>
</g>
</g>
<!-- Node1&#45;&gt;Node2 -->
<g id="edge1_Node000001_Node000002" class="edge">
<title>Node1&#45;&gt;Node2</title>
<g id="a_edge1_Node000001_Node000002"><a xlink:title=" ">
<path fill="none" stroke="#63b8ff" d="M122.4,-111.59C102.48,-102.92 72.72,-89.96 50.4,-80.24"/>
<polygon fill="#63b8ff" stroke="#63b8ff" points="52.07,-77.15 41.51,-76.37 49.28,-83.57 52.07,-77.15"/>
</a>
</g>
</g>
<!-- Node3 -->
<g id="Node000003" class="node">
<title>Node3</title>
<g id="a_Node000003"><a xlink:href="app__config_8h.html" target="_top" xlink:title=" ">
<polygon fill="white" stroke="#666666" points="129.75,-76 58.25,-76 58.25,-56 129.75,-56 129.75,-76"/>
<text xml:space="preserve" text-anchor="middle" x="94" y="-62.5" font-family="Helvetica,sans-Serif" font-size="10.00">app_config.h</text>
</a>
</g>
</g>
<!-- Node1&#45;&gt;Node3 -->
<g id="edge2_Node000001_Node000003" class="edge">
<title>Node1&#45;&gt;Node3</title>
<g id="a_edge2_Node000001_Node000003"><a xlink:title=" ">
<path fill="none" stroke="#63b8ff" d="M135.29,-111.59C128.41,-104.16 118.61,-93.58 110.28,-84.58"/>
<polygon fill="#63b8ff" stroke="#63b8ff" points="113,-82.37 103.64,-77.41 107.86,-87.12 113,-82.37"/>
</a>
</g>
</g>
<!-- Node4 -->
<g id="Node000004" class="node">
<title>Node4</title>
<g id="a_Node000004"><a xlink:href="dht22__streamer_8h.html" target="_top" xlink:title=" ">
<polygon fill="white" stroke="#666666" points="239.88,-76 148.12,-76 148.12,-56 239.88,-56 239.88,-76"/>
<text xml:space="preserve" text-anchor="middle" x="194" y="-62.5" font-family="Helvetica,sans-Serif" font-size="10.00">dht22_streamer.h</text>
</a>
</g>
</g>
<!-- Node1&#45;&gt;Node4 -->
<g id="edge3_Node000001_Node000004" class="edge">
<title>Node1&#45;&gt;Node4</title>
<g id="a_edge3_Node000001_Node000004"><a xlink:title=" ">
<path fill="none" stroke="#63b8ff" d="M152.71,-111.59C159.59,-104.16 169.39,-93.58 177.72,-84.58"/>
<polygon fill="#63b8ff" stroke="#63b8ff" points="180.14,-87.12 184.36,-77.41 175,-82.37 180.14,-87.12"/>
</a>
</g>
</g>
<!-- Node5 -->
<g id="Node000005" class="node">
<title>Node5</title>
<g id="a_Node000005"><a xlink:href="logger_8h.html" target="_top" xlink:title=" ">
<polygon fill="white" stroke="#666666" points="308.25,-76 257.75,-76 257.75,-56 308.25,-56 308.25,-76"/>
<text xml:space="preserve" text-anchor="middle" x="283" y="-62.5" font-family="Helvetica,sans-Serif" font-size="10.00">logger.h</text>
</a>
</g>
</g>
<!-- Node1&#45;&gt;Node5 -->
<g id="edge4_Node000001_Node000005" class="edge">
<title>Node1&#45;&gt;Node5</title>
<g id="a_edge4_Node000001_Node000005"><a xlink:title=" ">
<path fill="none" stroke="#63b8ff" d="M168.21,-111.59C190.3,-103.01 223.2,-90.23 248.12,-80.55"/>
<polygon fill="#63b8ff" stroke="#63b8ff" points="249.13,-83.91 257.19,-77.03 246.6,-77.39 249.13,-83.91"/>
</a>
</g>
</g>
<!-- Node6 -->
<g id="Node000006" class="node">
<title>Node6</title>
<g id="a_Node000006"><a xlink:title=" ">
<polygon fill="#e0e0e0" stroke="#999999" points="312,-20 254,-20 254,0 312,0 312,-20"/>
<text xml:space="preserve" text-anchor="middle" x="283" y="-6.5" font-family="Helvetica,sans-Serif" font-size="10.00">esp_log.h</text>
</a>
</g>
</g>
<!-- Node5&#45;&gt;Node6 -->
<g id="edge5_Node000005_Node000006" class="edge">
<title>Node5&#45;&gt;Node6</title>
<g id="a_edge5_Node000005_Node000006"><a xlink:title=" ">
<path fill="none" stroke="#63b8ff" d="M283,-55.59C283,-49.01 283,-39.96 283,-31.73"/>
<polygon fill="#63b8ff" stroke="#63b8ff" points="286.5,-31.81 283,-21.81 279.5,-31.81 286.5,-31.81"/>
</a>
</g>
</g>
</g>
</svg>
